<svg width="20" height="20" viewBox="0 0 20 20" fill="none" xmlns="http://www.w3.org/2000/svg">
<path d="M10.9358 16.4288C4.28828 16.4288 0.496609 11.8715 0.338623 4.28821H3.66848C3.77786 9.85418 6.23272 12.2118 8.17716 12.6979V4.28821H11.3126V9.08855C13.2327 8.88196 15.2501 6.69446 15.9306 4.28821H19.0661C18.8096 5.53616 18.2984 6.71777 17.5644 7.75913C16.8305 8.80049 15.8895 9.6792 14.8004 10.3403C16.0161 10.9444 17.0899 11.7994 17.9508 12.8489C18.8118 13.8984 19.4404 15.1185 19.7952 16.4288H16.3438C16.0253 15.2907 15.378 14.272 14.483 13.5002C13.588 12.7284 12.4851 12.238 11.3126 12.0903V16.4288H10.9358Z" fill="#5947B3"/>
</svg>
