<svg width="20" height="20" viewBox="0 0 20 20" fill="none" xmlns="http://www.w3.org/2000/svg">
<path fill-rule="evenodd" clip-rule="evenodd" d="M17.1667 3.58331C18.7083 3.70831 19.5417 4.58331 19.75 5.99998C19.875 6.95831 20 8.37498 20 9.87498C20 12.5416 19.75 14.0833 19.75 14.0833C19.5417 15.5 18.7917 16.25 17.2917 16.4166C15.5833 16.5833 11.7917 16.6666 10.0833 16.6666C8.29167 16.6666 4.75 16.5833 3 16.4583C1.5 16.3333 0.458333 15.5416 0.25 14.125C0.0833333 13.0833 0 11.875 0 9.91665C0 7.70831 0.0833333 6.79165 0.291667 5.83331C0.541667 4.41665 1.29167 3.74998 2.91667 3.58331C4.625 3.41665 6.20833 3.33331 9.83333 3.33331C11.5833 3.33331 15.4167 3.41665 17.1667 3.58331ZM13.125 9.99998L7.70833 12.5V7.49998L13.125 9.99998Z" fill="#5947B3"/>
</svg>
